<svg xmlns="http://www.w3.org/2000/svg" xmlns:xlink="http://www.w3.org/1999/xlink" width="500" zoomAndPan="magnify" viewBox="0 0 375 374.999991" height="500" preserveAspectRatio="xMidYMid meet" version="1.0"><defs><g/><clipPath id="3ddbe3d720"><rect x="0" width="271" y="0" height="135"/></clipPath></defs><g transform="matrix(1, 0, 0, 1, 53, 120)"><g clip-path="url(#3ddbe3d720)"><g fill="#38b6ff" fill-opacity="1"><g transform="translate(0.415873, 90.759709)"><g><path d="M 39.65625 37.625 C 35.757812 37.625 31.804688 37.226562 27.796875 36.4375 C 23.796875 35.65625 20.109375 34.328125 16.734375 32.453125 C 13.367188 30.585938 10.671875 28.082031 8.640625 24.9375 C 6.617188 21.789062 5.609375 17.859375 5.609375 13.140625 C 5.609375 8.347656 6.640625 4.320312 8.703125 1.0625 C 10.765625 -2.1875 13.5 -4.785156 16.90625 -6.734375 C 20.3125 -8.679688 24.054688 -10.085938 28.140625 -10.953125 C 32.222656 -11.816406 36.285156 -12.25 40.328125 -12.25 L 59.875 -12.25 C 59.425781 -17.113281 58.429688 -21.378906 56.890625 -25.046875 C 55.359375 -28.710938 52.941406 -31.648438 49.640625 -33.859375 C 46.347656 -36.078125 41.785156 -37.296875 35.953125 -37.515625 C 33.628906 -37.671875 31.507812 -37.726562 29.59375 -37.6875 C 27.6875 -37.644531 25.5 -37.625 23.03125 -37.625 C 20.632812 -37.625 18.273438 -37.882812 15.953125 -38.40625 C 13.628906 -38.9375 11.695312 -39.894531 10.15625 -41.28125 C 8.625 -42.664062 7.75 -44.628906 7.53125 -47.171875 C 7.53125 -47.773438 7.828125 -48.078125 8.421875 -48.078125 C 12.316406 -48.222656 16.582031 -48.332031 21.21875 -48.40625 C 25.863281 -48.488281 30.25 -48.53125 34.375 -48.53125 C 42.082031 -48.53125 48.519531 -47.570312 53.6875 -45.65625 C 58.851562 -43.75 63.007812 -41.109375 66.15625 -37.734375 C 69.300781 -34.367188 71.625 -30.476562 73.125 -26.0625 C 74.625 -21.644531 75.523438 -16.925781 75.828125 -11.90625 C 76.046875 -8.082031 75.015625 -5.140625 72.734375 -3.078125 C 70.453125 -1.023438 67.4375 0 63.6875 0 L 39.875 0 C 36.957031 0 34.070312 0.425781 31.21875 1.28125 C 28.375 2.144531 26.035156 3.515625 24.203125 5.390625 C 22.367188 7.265625 21.453125 9.773438 21.453125 12.921875 C 21.453125 15.992188 22.3125 18.539062 24.03125 20.5625 C 25.757812 22.582031 28.023438 24.097656 30.828125 25.109375 C 33.640625 26.117188 36.617188 26.625 39.765625 26.625 C 44.035156 26.625 48.097656 25.875 51.953125 24.375 C 55.804688 22.875 59.117188 21.523438 61.890625 20.328125 C 62.785156 19.953125 63.535156 19.765625 64.140625 19.765625 C 65.566406 19.765625 66.519531 20.289062 67 21.34375 C 67.488281 22.394531 67.171875 23.476562 66.046875 24.59375 L 57.96875 32.578125 C 56.84375 33.628906 55.132812 34.546875 52.84375 35.328125 C 50.5625 36.109375 48.1875 36.6875 45.71875 37.0625 C 43.25 37.4375 41.226562 37.625 39.65625 37.625 Z M 41 18.640625 C 39.351562 18.640625 37.890625 18.097656 36.609375 17.015625 C 35.335938 15.929688 34.703125 14.453125 34.703125 12.578125 C 34.703125 10.628906 35.394531 9.09375 36.78125 7.96875 C 38.164062 6.851562 39.570312 6.296875 41 6.296875 C 42.425781 6.296875 43.789062 6.875 45.09375 8.03125 C 46.40625 9.1875 47.0625 10.703125 47.0625 12.578125 C 47.0625 14.378906 46.460938 15.835938 45.265625 16.953125 C 44.066406 18.078125 42.644531 18.640625 41 18.640625 Z M 41 18.640625 "/></g></g></g><g fill="#38b6ff" fill-opacity="1"><g transform="translate(81.962915, 90.759709)"><g><path d="M 7.859375 -0.90625 L 7.859375 -70.203125 C 7.859375 -72.597656 8.703125 -74.394531 10.390625 -75.59375 C 12.078125 -76.789062 14.0625 -77.59375 16.34375 -78 C 18.625 -78.414062 20.664062 -78.625 22.46875 -78.625 C 23.0625 -78.625 23.359375 -78.328125 23.359375 -77.734375 L 23.359375 -8.53125 C 23.359375 -6.132812 22.515625 -4.335938 20.828125 -3.140625 C 19.148438 -1.941406 17.1875 -1.132812 14.9375 -0.71875 C 12.6875 -0.3125 10.628906 -0.0703125 8.765625 0 C 8.160156 0 7.859375 -0.300781 7.859375 -0.90625 Z M 7.859375 -0.90625 "/></g></g></g><g fill="#38b6ff" fill-opacity="1"><g transform="translate(113.188929, 90.759709)"><g><path d="M -6.296875 18.984375 C -8.085938 18.160156 -8.984375 17.296875 -8.984375 16.390625 C -8.984375 15.492188 -8.398438 14.785156 -7.234375 14.265625 C -6.078125 13.742188 -4.75 13.628906 -3.25 13.921875 C -2.351562 14.078125 -1.457031 14.191406 -0.5625 14.265625 C 0.332031 14.335938 1.191406 14.375 2.015625 14.375 C 6.890625 14.375 10.84375 12.96875 13.875 10.15625 C 16.90625 7.351562 18.457031 2.882812 18.53125 -3.25 L 18.421875 -39.65625 C 18.421875 -42.351562 19.207031 -44.394531 20.78125 -45.78125 C 22.351562 -47.164062 24.28125 -48.117188 26.5625 -48.640625 C 28.851562 -49.160156 31.007812 -49.421875 33.03125 -49.421875 C 33.625 -49.421875 33.921875 -49.125 33.921875 -48.53125 L 34.03125 -22.125 C 34.03125 -18.457031 34.875 -15.875 36.5625 -14.375 C 38.25 -12.875 40.140625 -12.125 42.234375 -12.125 L 47.171875 -12.125 L 47.171875 0.109375 L 42.234375 0.109375 C 39.835938 0.109375 38.113281 -0.242188 37.0625 -0.953125 C 36.019531 -1.660156 35.085938 -3.066406 34.265625 -5.171875 C 34.191406 -5.460938 34.132812 -5.609375 34.09375 -5.609375 C 34.050781 -5.609375 34.03125 -5.460938 34.03125 -5.171875 L 34.03125 0.109375 C 34.03125 4.378906 33.28125 7.992188 31.78125 10.953125 C 30.289062 13.910156 28.328125 16.320312 25.890625 18.1875 C 23.453125 20.0625 20.828125 21.410156 18.015625 22.234375 C 15.210938 23.066406 12.460938 23.484375 9.765625 23.484375 C 6.472656 23.484375 3.457031 22.957031 0.71875 21.90625 C -2.007812 20.851562 -4.347656 19.878906 -6.296875 18.984375 Z M -6.296875 18.984375 "/></g></g></g><g fill="#38b6ff" fill-opacity="1"><g transform="translate(159.241658, 90.759709)"><g><path d="M -1.125 0 L -1.125 -12.25 L 21.234375 -12.25 L 21.234375 0 Z M -1.125 0 "/></g></g></g><g fill="#38b6ff" fill-opacity="1"><g transform="translate(214.280707, 91.995302)"><g><path d="M 0.90625 15.953125 C 0.300781 16.097656 0 15.875 0 15.28125 C 0 13.550781 0.222656 11.972656 0.671875 10.546875 C 1.117188 9.128906 2.46875 8.234375 4.71875 7.859375 L 26.515625 4.046875 C 27.179688 3.890625 27.515625 4 27.515625 4.375 C 27.671875 6.03125 27.484375 7.53125 26.953125 8.875 C 26.429688 10.21875 25.195312 11.078125 23.25 11.453125 Z M 0.90625 15.953125 "/></g></g></g><g fill="#38b6ff" fill-opacity="1"><g transform="translate(179.347603, 90.759709)"><g><path d="M 17.296875 0 L -1.125 0 L -1.125 -12.25 L 14.484375 -12.25 L 14.484375 -30.21875 C 14.484375 -32.539062 15.304688 -34.300781 16.953125 -35.5 C 18.609375 -36.695312 20.578125 -37.535156 22.859375 -38.015625 C 25.140625 -38.503906 27.21875 -38.75 29.09375 -38.75 C 29.695312 -38.75 30 -38.453125 30 -37.859375 L 30 -21.6875 C 30 -20.332031 30.109375 -18.925781 30.328125 -17.46875 C 30.554688 -16.007812 31.039062 -14.773438 31.78125 -13.765625 C 32.53125 -12.753906 33.734375 -12.25 35.390625 -12.25 C 36.878906 -12.25 38.148438 -12.921875 39.203125 -14.265625 C 40.253906 -15.609375 40.78125 -18.039062 40.78125 -21.5625 L 40.78125 -35.828125 C 40.78125 -38.148438 41.601562 -39.910156 43.25 -41.109375 C 44.894531 -42.304688 46.859375 -43.148438 49.140625 -43.640625 C 51.429688 -44.128906 53.507812 -44.375 55.375 -44.375 C 55.976562 -44.375 56.28125 -44.070312 56.28125 -43.46875 L 56.28125 -21.6875 C 56.28125 -18.757812 56.726562 -16.640625 57.625 -15.328125 C 58.519531 -14.023438 59.585938 -13.1875 60.828125 -12.8125 C 62.066406 -12.4375 63.242188 -12.25 64.359375 -12.25 L 66.953125 -12.25 L 66.953125 -40.890625 C 66.953125 -42.679688 67.472656 -44.082031 68.515625 -45.09375 C 69.566406 -46.113281 70.878906 -46.847656 72.453125 -47.296875 C 74.023438 -47.742188 75.632812 -48.019531 77.28125 -48.125 C 78.925781 -48.238281 80.347656 -48.296875 81.546875 -48.296875 C 82.148438 -48.296875 82.453125 -48 82.453125 -47.40625 L 82.453125 -11.015625 C 82.453125 -8.984375 81.628906 -7.125 79.984375 -5.4375 C 78.335938 -3.757812 76.351562 -2.429688 74.03125 -1.453125 C 71.707031 -0.484375 69.457031 0 67.28125 0 L 63.46875 0 C 60.46875 0 57.804688 -0.65625 55.484375 -1.96875 C 53.171875 -3.28125 51.75 -5.207031 51.21875 -7.75 C 51.070312 -8.351562 50.882812 -8.351562 50.65625 -7.75 C 49.6875 -5.28125 47.960938 -3.367188 45.484375 -2.015625 C 43.015625 -0.671875 40.4375 0 37.75 0 C 34.976562 0 32.632812 -0.410156 30.71875 -1.234375 C 28.8125 -2.054688 27.410156 -3.066406 26.515625 -4.265625 C 26.210938 -4.640625 25.910156 -4.640625 25.609375 -4.265625 C 24.335938 -2.617188 22.914062 -1.492188 21.34375 -0.890625 C 19.769531 -0.296875 18.421875 0 17.296875 0 Z M 17.296875 0 "/></g></g></g></g></g></svg>