<svg xmlns="http://www.w3.org/2000/svg" xmlns:xlink="http://www.w3.org/1999/xlink" width="160" zoomAndPan="magnify" viewBox="0 0 120 74.999997" height="100" preserveAspectRatio="xMidYMid meet" version="1.0"><defs><g/><clipPath id="4adcbaeaf6"><rect x="0" width="119" y="0" height="60"/></clipPath></defs><g transform="matrix(1, 0, 0, 1, 1, 8)"><g clip-path="url(#4adcbaeaf6)"><g fill="#ffffff" fill-opacity="1"><g transform="translate(1.069269, 40.342682)"><g><path d="M 17.4375 16.546875 C 15.726562 16.546875 13.988281 16.375 12.21875 16.03125 C 10.457031 15.6875 8.835938 15.101562 7.359375 14.28125 C 5.878906 13.457031 4.691406 12.351562 3.796875 10.96875 C 2.910156 9.582031 2.46875 7.851562 2.46875 5.78125 C 2.46875 3.675781 2.921875 1.90625 3.828125 0.46875 C 4.734375 -0.957031 5.9375 -2.097656 7.4375 -2.953125 C 8.9375 -3.816406 10.582031 -4.4375 12.375 -4.8125 C 14.164062 -5.195312 15.953125 -5.390625 17.734375 -5.390625 L 26.328125 -5.390625 C 26.128906 -7.523438 25.691406 -9.398438 25.015625 -11.015625 C 24.347656 -12.628906 23.285156 -13.921875 21.828125 -14.890625 C 20.378906 -15.867188 18.375 -16.40625 15.8125 -16.5 C 14.789062 -16.5625 13.859375 -16.582031 13.015625 -16.5625 C 12.171875 -16.550781 11.207031 -16.546875 10.125 -16.546875 C 9.070312 -16.546875 8.035156 -16.660156 7.015625 -16.890625 C 5.992188 -17.117188 5.144531 -17.535156 4.46875 -18.140625 C 3.789062 -18.753906 3.40625 -19.625 3.3125 -20.75 C 3.3125 -21.007812 3.441406 -21.140625 3.703125 -21.140625 C 5.421875 -21.210938 7.300781 -21.265625 9.34375 -21.296875 C 11.382812 -21.328125 13.304688 -21.34375 15.109375 -21.34375 C 18.503906 -21.34375 21.335938 -20.921875 23.609375 -20.078125 C 25.878906 -19.242188 27.707031 -18.082031 29.09375 -16.59375 C 30.476562 -15.113281 31.5 -13.398438 32.15625 -11.453125 C 32.8125 -9.515625 33.207031 -7.441406 33.34375 -5.234375 C 33.445312 -3.554688 32.992188 -2.265625 31.984375 -1.359375 C 30.984375 -0.453125 29.660156 0 28.015625 0 L 17.53125 0 C 16.25 0 14.984375 0.1875 13.734375 0.5625 C 12.484375 0.945312 11.453125 1.550781 10.640625 2.375 C 9.835938 3.195312 9.4375 4.300781 9.4375 5.6875 C 9.4375 7.03125 9.8125 8.144531 10.5625 9.03125 C 11.320312 9.925781 12.316406 10.59375 13.546875 11.03125 C 14.785156 11.476562 16.097656 11.703125 17.484375 11.703125 C 19.359375 11.703125 21.144531 11.375 22.84375 10.71875 C 24.539062 10.0625 26 9.46875 27.21875 8.9375 C 27.613281 8.769531 27.941406 8.6875 28.203125 8.6875 C 28.828125 8.6875 29.242188 8.914062 29.453125 9.375 C 29.671875 9.84375 29.535156 10.320312 29.046875 10.8125 L 25.484375 14.328125 C 24.992188 14.785156 24.242188 15.1875 23.234375 15.53125 C 22.234375 15.882812 21.1875 16.140625 20.09375 16.296875 C 19.007812 16.460938 18.125 16.546875 17.4375 16.546875 Z M 18.03125 8.203125 C 17.300781 8.203125 16.65625 7.960938 16.09375 7.484375 C 15.539062 7.003906 15.265625 6.351562 15.265625 5.53125 C 15.265625 4.675781 15.566406 4 16.171875 3.5 C 16.785156 3.007812 17.40625 2.765625 18.03125 2.765625 C 18.65625 2.765625 19.253906 3.019531 19.828125 3.53125 C 20.410156 4.039062 20.703125 4.707031 20.703125 5.53125 C 20.703125 6.320312 20.4375 6.960938 19.90625 7.453125 C 19.382812 7.953125 18.757812 8.203125 18.03125 8.203125 Z M 18.03125 8.203125 "/></g></g></g><g fill="#ffffff" fill-opacity="1"><g transform="translate(36.930719, 40.342682)"><g><path d="M 3.453125 -0.390625 L 3.453125 -30.875 C 3.453125 -31.925781 3.820312 -32.710938 4.5625 -33.234375 C 5.3125 -33.765625 6.1875 -34.117188 7.1875 -34.296875 C 8.1875 -34.484375 9.082031 -34.578125 9.875 -34.578125 C 10.144531 -34.578125 10.28125 -34.445312 10.28125 -34.1875 L 10.28125 -3.75 C 10.28125 -2.695312 9.90625 -1.90625 9.15625 -1.375 C 8.414062 -0.851562 7.550781 -0.5 6.5625 -0.3125 C 5.582031 -0.132812 4.679688 -0.03125 3.859375 0 C 3.585938 0 3.453125 -0.128906 3.453125 -0.390625 Z M 3.453125 -0.390625 "/></g></g></g><g fill="#ffffff" fill-opacity="1"><g transform="translate(50.662795, 40.342682)"><g><path d="M -2.765625 8.34375 C -3.554688 7.988281 -3.953125 7.613281 -3.953125 7.21875 C -3.953125 6.820312 -3.695312 6.503906 -3.1875 6.265625 C -2.675781 6.035156 -2.09375 5.988281 -1.4375 6.125 C -1.039062 6.1875 -0.644531 6.234375 -0.25 6.265625 C 0.144531 6.304688 0.523438 6.328125 0.890625 6.328125 C 3.023438 6.328125 4.757812 5.707031 6.09375 4.46875 C 7.4375 3.238281 8.125 1.269531 8.15625 -1.4375 L 8.109375 -17.4375 C 8.109375 -18.625 8.453125 -19.519531 9.140625 -20.125 C 9.828125 -20.738281 10.671875 -21.160156 11.671875 -21.390625 C 12.679688 -21.617188 13.632812 -21.734375 14.53125 -21.734375 C 14.789062 -21.734375 14.921875 -21.601562 14.921875 -21.34375 L 14.96875 -9.734375 C 14.96875 -8.117188 15.335938 -6.976562 16.078125 -6.3125 C 16.816406 -5.65625 17.648438 -5.328125 18.578125 -5.328125 L 20.75 -5.328125 L 20.75 0.046875 L 18.578125 0.046875 C 17.523438 0.046875 16.765625 -0.109375 16.296875 -0.421875 C 15.835938 -0.734375 15.425781 -1.347656 15.0625 -2.265625 C 15.03125 -2.398438 15.003906 -2.46875 14.984375 -2.46875 C 14.972656 -2.46875 14.96875 -2.398438 14.96875 -2.265625 L 14.96875 0.046875 C 14.96875 1.921875 14.640625 3.507812 13.984375 4.8125 C 13.328125 6.113281 12.460938 7.175781 11.390625 8 C 10.316406 8.820312 9.160156 9.414062 7.921875 9.78125 C 6.691406 10.144531 5.484375 10.328125 4.296875 10.328125 C 2.847656 10.328125 1.519531 10.09375 0.3125 9.625 C -0.882812 9.164062 -1.910156 8.738281 -2.765625 8.34375 Z M -2.765625 8.34375 "/></g></g></g><g fill="#ffffff" fill-opacity="1"><g transform="translate(70.915125, 40.342682)"><g><path d="M -0.5 0 L -0.5 -5.390625 L 9.34375 -5.390625 L 9.34375 0 Z M -0.5 0 "/></g></g></g><g fill="#ffffff" fill-opacity="1"><g transform="translate(95.119315, 40.886051)"><g><path d="M 0.390625 7.015625 C 0.128906 7.078125 0 6.976562 0 6.71875 C 0 5.957031 0.0976562 5.265625 0.296875 4.640625 C 0.492188 4.015625 1.085938 3.617188 2.078125 3.453125 L 11.65625 1.78125 C 11.957031 1.707031 12.109375 1.753906 12.109375 1.921875 C 12.171875 2.648438 12.085938 3.3125 11.859375 3.90625 C 11.628906 4.5 11.082031 4.875 10.21875 5.03125 Z M 0.390625 7.015625 "/></g></g></g><g fill="#ffffff" fill-opacity="1"><g transform="translate(79.756995, 40.342682)"><g><path d="M 7.609375 0 L -0.5 0 L -0.5 -5.390625 L 6.375 -5.390625 L 6.375 -13.28125 C 6.375 -14.3125 6.734375 -15.085938 7.453125 -15.609375 C 8.179688 -16.140625 9.046875 -16.507812 10.046875 -16.71875 C 11.054688 -16.9375 11.972656 -17.046875 12.796875 -17.046875 C 13.054688 -17.046875 13.1875 -16.910156 13.1875 -16.640625 L 13.1875 -9.53125 C 13.1875 -8.9375 13.234375 -8.316406 13.328125 -7.671875 C 13.429688 -7.035156 13.644531 -6.492188 13.96875 -6.046875 C 14.300781 -5.609375 14.832031 -5.390625 15.5625 -5.390625 C 16.21875 -5.390625 16.773438 -5.679688 17.234375 -6.265625 C 17.703125 -6.859375 17.9375 -7.929688 17.9375 -9.484375 L 17.9375 -15.765625 C 17.9375 -16.785156 18.296875 -17.554688 19.015625 -18.078125 C 19.742188 -18.609375 20.609375 -18.976562 21.609375 -19.1875 C 22.617188 -19.40625 23.535156 -19.515625 24.359375 -19.515625 C 24.617188 -19.515625 24.75 -19.382812 24.75 -19.125 L 24.75 -9.53125 C 24.75 -8.25 24.945312 -7.316406 25.34375 -6.734375 C 25.738281 -6.160156 26.207031 -5.789062 26.75 -5.625 C 27.289062 -5.46875 27.8125 -5.390625 28.3125 -5.390625 L 29.4375 -5.390625 L 29.4375 -17.984375 C 29.4375 -18.773438 29.664062 -19.390625 30.125 -19.828125 C 30.59375 -20.273438 31.171875 -20.597656 31.859375 -20.796875 C 32.554688 -20.992188 33.265625 -21.117188 33.984375 -21.171875 C 34.710938 -21.222656 35.335938 -21.25 35.859375 -21.25 C 36.128906 -21.25 36.265625 -21.113281 36.265625 -20.84375 L 36.265625 -4.84375 C 36.265625 -3.945312 35.898438 -3.128906 35.171875 -2.390625 C 34.453125 -1.648438 33.582031 -1.066406 32.5625 -0.640625 C 31.539062 -0.210938 30.550781 0 29.59375 0 L 27.90625 0 C 26.59375 0 25.425781 -0.285156 24.40625 -0.859375 C 23.382812 -1.441406 22.757812 -2.289062 22.53125 -3.40625 C 22.457031 -3.664062 22.375 -3.664062 22.28125 -3.40625 C 21.851562 -2.320312 21.09375 -1.484375 20 -0.890625 C 18.914062 -0.296875 17.78125 0 16.59375 0 C 15.375 0 14.34375 -0.179688 13.5 -0.546875 C 12.664062 -0.910156 12.050781 -1.351562 11.65625 -1.875 C 11.53125 -2.039062 11.398438 -2.039062 11.265625 -1.875 C 10.703125 -1.15625 10.070312 -0.660156 9.375 -0.390625 C 8.6875 -0.128906 8.097656 0 7.609375 0 Z M 7.609375 0 "/></g></g></g></g></g></svg>